<svg xmlns="http://www.w3.org/2000/svg" width="224.08" height="40" viewBox="0 0 224.08 40"><title>MEMEX-logo-40px</title><path d="M38.63,2.62a2.4,2.4,0,0,1,.59,1.71V39.72a2.33,2.33,0,0,1-.56,1.62A2,2,0,0,1,37.1,42a1.83,1.83,0,0,1-1.51-.62,2.46,2.46,0,0,1-.51-1.62V11.15L23,34.41A2.47,2.47,0,0,1,20.66,36a2.53,2.53,0,0,1-2.29-1.62l-12.19-23V39.72a2.41,2.41,0,0,1-.53,1.62A1.94,1.94,0,0,1,4.11,42a2,2,0,0,1-1.57-.62A2.33,2.33,0,0,1,2,39.72V4.33A2.38,2.38,0,0,1,2.6,2.62,2.21,2.21,0,0,1,4.28,2,2.51,2.51,0,0,1,6.51,3.6l14.2,27.23,14-27.23a3.17,3.17,0,0,1,1-1.26A2.16,2.16,0,0,1,37,2,2.11,2.11,0,0,1,38.63,2.62Z" transform="translate(-1.98 -1.96)" fill="#235b7a"/><path d="M48.25,41.06a2.13,2.13,0,0,1-.64-1.62V4.49a2.13,2.13,0,0,1,.64-1.62A2.37,2.37,0,0,1,50,2.26H70.87a2.27,2.27,0,0,1,1.56.5A1.8,1.8,0,0,1,73,4.16a1.8,1.8,0,0,1-.56,1.4,2.27,2.27,0,0,1-1.56.5H52.14v13.7H69.75a2.27,2.27,0,0,1,1.56.5,2,2,0,0,1,0,2.8,2.27,2.27,0,0,1-1.56.5H52.14V37.87H70.87a2.31,2.31,0,0,1,1.56.48,2.06,2.06,0,0,1,0,2.82,2.22,2.22,0,0,1-1.56.51H50A2.38,2.38,0,0,1,48.25,41.06Z" transform="translate(-1.98 -1.96)" fill="#235b7a"/><path d="M115.4,2.62A2.45,2.45,0,0,1,116,4.33V39.72a2.33,2.33,0,0,1-.56,1.62,2,2,0,0,1-1.57.62,1.85,1.85,0,0,1-1.51-.62,2.51,2.51,0,0,1-.5-1.62V11.15L99.72,34.41A2.49,2.49,0,0,1,97.42,36a2.55,2.55,0,0,1-2.29-1.62l-12.19-23V39.72a2.36,2.36,0,0,1-.53,1.62,1.91,1.91,0,0,1-1.54.62,2,2,0,0,1-1.56-.62,2.33,2.33,0,0,1-.56-1.62V4.33a2.37,2.37,0,0,1,.61-1.71A2.21,2.21,0,0,1,81,2,2.52,2.52,0,0,1,83.28,3.6l14.2,27.23,14-27.23a3.26,3.26,0,0,1,1-1.26A2.22,2.22,0,0,1,113.75,2,2.11,2.11,0,0,1,115.4,2.62Z" transform="translate(-1.98 -1.96)" fill="#235b7a"/><path d="M125,41.06a2.14,2.14,0,0,1-.65-1.62V4.49A2.14,2.14,0,0,1,125,2.87a2.33,2.33,0,0,1,1.7-.61h20.91a2.29,2.29,0,0,1,1.57.5,1.8,1.8,0,0,1,.56,1.4,1.8,1.8,0,0,1-.56,1.4,2.29,2.29,0,0,1-1.57.5H128.9v13.7h17.62a2.27,2.27,0,0,1,1.56.5,2,2,0,0,1,0,2.8,2.27,2.27,0,0,1-1.56.5H128.9V37.87h18.73a2.34,2.34,0,0,1,1.57.48,2.06,2.06,0,0,1,0,2.82,2.25,2.25,0,0,1-1.57.51H126.72A2.34,2.34,0,0,1,125,41.06Z" transform="translate(-1.98 -1.96)" fill="#235b7a"/><path d="M186.77,39.77a2,2,0,0,1-.67,1.51,2.25,2.25,0,0,1-1.56.62,2.2,2.2,0,0,1-1.63-.78L170.17,24.85,157.36,41.12a2,2,0,0,1-1.62.78,2.17,2.17,0,0,1-1.51-.64,2,2,0,0,1-.67-1.49,2,2,0,0,1,.5-1.39l13.42-16.83-12.69-16a2.12,2.12,0,0,1-.56-1.46,2,2,0,0,1,.64-1.45A2.11,2.11,0,0,1,156.36,2a2,2,0,0,1,1.62.84L170.17,18.3,182.3,2.87A2,2,0,0,1,183.92,2a2.13,2.13,0,0,1,1.51.65,2,2,0,0,1,.67,1.53,2,2,0,0,1-.5,1.35l-12.75,16,13.36,16.83A2,2,0,0,1,186.77,39.77Z" transform="translate(-1.98 -1.96)" fill="#235b7a"/><path d="M222,41.49a3.42,3.42,0,1,0-2.68-2.68A3.42,3.42,0,0,0,222,41.49Z" transform="translate(-1.98 -1.96)" fill="#a9a004"/><path d="M206.42,41.49a3.42,3.42,0,1,0-2.68-2.68A3.42,3.42,0,0,0,206.42,41.49Z" transform="translate(-1.98 -1.96)" fill="#e1593d"/><circle cx="212.99" cy="27.89" r="3.42" fill="#a9a004"/><circle cx="197.44" cy="27.89" r="3.42" fill="#e1593d"/><path d="M206.42,25.11a3.42,3.42,0,1,0-2.68-2.68A3.42,3.42,0,0,0,206.42,25.11Z" transform="translate(-1.98 -1.96)" fill="#a9a004"/><path d="M190.87,25.11a3.42,3.42,0,1,0-2.68-2.68A3.42,3.42,0,0,0,190.87,25.11Z" transform="translate(-1.98 -1.96)" fill="#e1593d"/><circle cx="212.99" cy="11.51" r="3.42" fill="#a9a004"/><circle cx="197.44" cy="11.51" r="3.42" fill="#e1593d"/><path d="M222,8.73a3.42,3.42,0,1,0-2.68-2.68A3.42,3.42,0,0,0,222,8.73Z" transform="translate(-1.98 -1.96)" fill="#a9a004"/><path d="M206.42,8.73a3.42,3.42,0,1,0-2.68-2.68A3.42,3.42,0,0,0,206.42,8.73Z" transform="translate(-1.98 -1.96)" fill="#e1593d"/></svg>